<?xml version="1.0" encoding="UTF-8" standalone="no"?>
<!DOCTYPE svg PUBLIC "-//W3C//DTD SVG 1.1//EN"
        "http://www.w3.org/Graphics/SVG/1.1/DTD/svg11.dtd">
<!-- Generated by graphviz version 5.0.0 (0)
 -->
<!-- Title: arcade Pages: 1 -->
<svg width="1840pt" height="444pt"
     viewBox="0.00 0.00 1840.05 444.43" xmlns="http://www.w3.org/2000/svg"
     xmlns:xlink="http://www.w3.org/1999/xlink">
    <g id="graph0" class="graph"
       transform="scale(1 1) rotate(0) translate(4 440.43)">
        <title>arcade</title>
        <polygon fill="white" stroke="transparent"
                 points="-4,4 -4,-440.43 1836.05,-440.43 1836.05,4 -4,4"/>
        <g id="clust1" class="cluster">
            <title>clusterLegend</title>
            <polygon fill="none" stroke="black"
                     points="8,-165.72 8,-428.43 539,-428.43 539,-165.72 8,-165.72"/>
            <text text-anchor="middle" x="273.5" y="-413.23"
                  font-family="Times,serif" font-size="14.00">Legend
            </text>
        </g>
        <!-- legendNode0 -->
        <g id="node1" class="node">
            <title>legendNode0</title>
            <polygon fill="none" stroke="black"
                     points="276.21,-361.48 278.99,-361.58 281.75,-361.73 284.47,-361.93 287.13,-362.17 289.74,-362.46 292.27,-362.8 294.72,-363.18 297.08,-363.61 299.34,-364.08 301.49,-364.59 303.52,-365.15 305.44,-365.74 307.22,-366.37 308.87,-367.04 310.38,-367.74 311.75,-368.47 312.98,-369.24 314.06,-370.03 314.99,-370.84 315.77,-371.68 316.4,-372.54 316.89,-373.42 317.22,-374.32 317.42,-375.23 317.47,-376.15 317.38,-377.08 317.16,-378.02 316.81,-378.96 316.34,-379.91 315.74,-380.85 315.04,-381.78 314.22,-382.72 313.3,-383.64 312.29,-384.55 311.18,-385.44 309.99,-386.32 308.73,-387.19 307.39,-388.03 305.98,-388.84 304.52,-389.63 303,-390.4 301.43,-391.13 299.82,-391.83 298.17,-392.5 296.48,-393.13 294.77,-393.72 293.03,-394.27 291.26,-394.79 289.48,-395.26 287.68,-395.69 285.86,-396.07 284.03,-396.41 282.2,-396.7 280.35,-396.94 278.5,-397.14 276.65,-397.29 274.79,-397.38 272.93,-397.43 271.07,-397.43 269.21,-397.38 267.35,-397.29 265.5,-397.14 263.65,-396.94 261.8,-396.7 259.97,-396.41 258.14,-396.07 256.32,-395.69 254.52,-395.26 252.74,-394.79 250.97,-394.27 249.23,-393.72 247.52,-393.13 245.83,-392.5 244.18,-391.83 242.57,-391.13 241,-390.4 239.48,-389.63 238.02,-388.84 236.61,-388.03 235.27,-387.19 234.01,-386.32 232.82,-385.44 231.71,-384.55 230.7,-383.64 229.78,-382.72 228.96,-381.78 228.26,-380.85 227.66,-379.91 227.19,-378.96 226.84,-378.02 226.62,-377.08 226.53,-376.15 226.58,-375.23 226.78,-374.32 227.11,-373.42 227.6,-372.54 228.23,-371.68 229.01,-370.84 229.94,-370.03 231.02,-369.24 232.25,-368.47 233.62,-367.74 235.13,-367.04 236.78,-366.37 238.56,-365.74 240.48,-365.15 242.51,-364.59 244.66,-364.08 246.92,-363.61 249.28,-363.18 251.73,-362.8 254.26,-362.46 256.87,-362.17 259.53,-361.93 262.25,-361.73 265.01,-361.58 267.79,-361.48 270.6,-361.43 273.4,-361.43 276.21,-361.48"/>
            <text text-anchor="middle" x="272" y="-376.33"
                  font-family="Times,serif" font-size="12.00">Executable
            </text>
        </g>
        <!-- legendNode1 -->
        <g id="node2" class="node">
            <title>legendNode1</title>
            <polygon fill="none" stroke="black"
                     points="386.11,-290.98 386.11,-305.89 353.83,-316.43 308.17,-316.43 275.89,-305.89 275.89,-290.98 308.17,-280.43 353.83,-280.43 386.11,-290.98"/>
            <text text-anchor="middle" x="331" y="-295.33"
                  font-family="Times,serif" font-size="12.00">Static Library
            </text>
        </g>
        <!-- legendNode0&#45;&gt;legendNode1 -->
        <g id="edge1" class="edge">
            <title>legendNode0&#45;&gt;legendNode1</title>
            <path fill="none" stroke="black"
                  d="M284.51,-361.68C292.51,-350.97 303.05,-336.86 312.06,-324.79"/>
            <polygon fill="black" stroke="black"
                     points="315.12,-326.54 318.3,-316.44 309.51,-322.35 315.12,-326.54"/>
        </g>
        <!-- legendNode2 -->
        <g id="node3" class="node">
            <title>legendNode2</title>
            <polygon fill="none" stroke="black"
                     points="527.12,-290.98 527.12,-305.89 492.49,-316.43 443.51,-316.43 408.88,-305.89 408.88,-290.98 443.51,-280.43 492.49,-280.43 527.12,-290.98"/>
            <polygon fill="none" stroke="black"
                     points="531.1,-288.01 531.1,-308.86 493.08,-320.43 442.92,-320.43 404.9,-308.86 404.9,-288.01 442.92,-276.43 493.08,-276.43 531.1,-288.01"/>
            <text text-anchor="middle" x="468" y="-295.33"
                  font-family="Times,serif" font-size="12.00">Shared Library
            </text>
        </g>
        <!-- legendNode0&#45;&gt;legendNode2 -->
        <g id="edge2" class="edge">
            <title>legendNode0&#45;&gt;legendNode2</title>
            <path fill="none" stroke="black"
                  d="M304.37,-365.39C335.31,-352.92 382.4,-333.94 418.14,-319.53"/>
            <polygon fill="black" stroke="black"
                     points="419.46,-322.77 427.43,-315.79 416.84,-316.28 419.46,-322.77"/>
        </g>
        <!-- legendNode3 -->
        <g id="node4" class="node">
            <title>legendNode3</title>
            <polygon fill="none" stroke="black"
                     points="146.12,-290.98 146.12,-305.89 110.32,-316.43 59.68,-316.43 23.88,-305.89 23.88,-290.98 59.68,-280.43 110.32,-280.43 146.12,-290.98"/>
            <polygon fill="none" stroke="black"
                     points="150.11,-287.98 150.11,-308.88 110.89,-320.43 59.11,-320.43 19.89,-308.88 19.89,-287.98 59.11,-276.43 110.89,-276.43 150.11,-287.98"/>
            <polygon fill="none" stroke="black"
                     points="154.1,-284.99 154.1,-311.88 111.47,-324.43 58.53,-324.43 15.9,-311.88 15.9,-284.99 58.53,-272.43 111.47,-272.43 154.1,-284.99"/>
            <text text-anchor="middle" x="85" y="-295.33"
                  font-family="Times,serif" font-size="12.00">Module Library
            </text>
        </g>
        <!-- legendNode0&#45;&gt;legendNode3 -->
        <!-- legendNode7 -->
        <g id="node8" class="node">
            <title>legendNode7</title>
            <polygon fill="none" stroke="black"
                     points="258,-316.43 172,-316.43 172,-280.43 258,-280.43 258,-316.43"/>
            <text text-anchor="middle" x="215" y="-295.33"
                  font-family="Times,serif" font-size="12.00">Custom Target
            </text>
        </g>
        <!-- legendNode0&#45;&gt;legendNode7 -->
        <!-- legendNode4 -->
        <g id="node5" class="node">
            <title>legendNode4</title>
            <polygon fill="none" stroke="black"
                     points="388.64,-197.28 314,-209.72 239.36,-197.28 267.87,-177.15 360.13,-177.15 388.64,-197.28"/>
            <text text-anchor="middle" x="314" y="-188.62"
                  font-family="Times,serif" font-size="12.00">Interface Library
            </text>
        </g>
        <!-- legendNode1&#45;&gt;legendNode4 -->
        <g id="edge4" class="edge">
            <title>legendNode1&#45;&gt;legendNode4</title>
            <path fill="none" stroke="black" stroke-dasharray="5,2"
                  d="M328.19,-280.14C325.5,-263.58 321.41,-238.34 318.3,-219.23"/>
            <polygon fill="black" stroke="black"
                     points="321.76,-218.65 316.7,-209.34 314.85,-219.77 321.76,-218.65"/>
            <text text-anchor="middle" x="348.5" y="-243.23"
                  font-family="Times,serif" font-size="14.00">Interface
            </text>
        </g>
        <!-- legendNode5 -->
        <g id="node6" class="node">
            <title>legendNode5</title>
            <polygon fill="none" stroke="black"
                     points="529.68,-191.72 498.84,-209.72 437.16,-209.72 406.32,-191.72 437.16,-173.72 498.84,-173.72 529.68,-191.72"/>
            <text text-anchor="middle" x="468" y="-188.62"
                  font-family="Times,serif" font-size="12.00">Object Library
            </text>
        </g>
        <!-- legendNode2&#45;&gt;legendNode5 -->
        <g id="edge5" class="edge">
            <title>legendNode2&#45;&gt;legendNode5</title>
            <path fill="none" stroke="black" stroke-dasharray="1,5"
                  d="M468,-276.24C468,-260.01 468,-237.49 468,-219.93"/>
            <polygon fill="black" stroke="black"
                     points="471.5,-219.73 468,-209.73 464.5,-219.73 471.5,-219.73"/>
            <text text-anchor="middle" x="488" y="-243.23"
                  font-family="Times,serif" font-size="14.00">Private
            </text>
        </g>
        <!-- legendNode6 -->
        <g id="node7" class="node">
            <title>legendNode6</title>
            <polygon fill="none" stroke="black"
                     points="155.88,-187.71 142.04,-202.94 86,-209.72 29.96,-202.94 16.12,-187.71 54.9,-175.5 117.1,-175.5 155.88,-187.71"/>
            <text text-anchor="middle" x="86" y="-188.62"
                  font-family="Times,serif" font-size="12.00">Unknown Library
            </text>
        </g>
        <!-- legendNode3&#45;&gt;legendNode6 -->
        <g id="edge6" class="edge">
            <title>legendNode3&#45;&gt;legendNode6</title>
            <path fill="none" stroke="black"
                  d="M85.24,-272.35C85.39,-256.62 85.58,-236.33 85.74,-220.17"/>
            <polygon fill="black" stroke="black"
                     points="89.24,-219.78 85.84,-209.75 82.24,-219.71 89.24,-219.78"/>
        </g>
        <!-- node0 -->
        <g id="node9" class="node">
            <title>node0</title>
            <polygon fill="none" stroke="black"
                     points="848.83,-361.48 850.71,-361.58 852.57,-361.73 854.4,-361.93 856.19,-362.17 857.95,-362.46 859.65,-362.8 861.3,-363.18 862.89,-363.61 864.41,-364.08 865.86,-364.59 867.23,-365.15 868.52,-365.74 869.72,-366.37 870.83,-367.04 871.85,-367.74 872.77,-368.47 873.6,-369.24 874.33,-370.03 874.95,-370.84 875.48,-371.68 875.91,-372.54 876.23,-373.42 876.46,-374.32 876.59,-375.23 876.62,-376.15 876.57,-377.08 876.42,-378.02 876.18,-378.96 875.86,-379.91 875.46,-380.85 874.99,-381.78 874.44,-382.72 873.82,-383.64 873.13,-384.55 872.39,-385.44 871.59,-386.32 870.74,-387.19 869.83,-388.03 868.89,-388.84 867.9,-389.63 866.88,-390.4 865.82,-391.13 864.74,-391.83 863.63,-392.5 862.49,-393.13 861.33,-393.72 860.16,-394.27 858.97,-394.79 857.77,-395.26 856.56,-395.69 855.33,-396.07 854.1,-396.41 852.87,-396.7 851.63,-396.94 850.38,-397.14 849.13,-397.29 847.88,-397.38 846.63,-397.43 845.37,-397.43 844.12,-397.38 842.87,-397.29 841.62,-397.14 840.37,-396.94 839.13,-396.7 837.9,-396.41 836.67,-396.07 835.44,-395.69 834.23,-395.26 833.03,-394.79 831.84,-394.27 830.67,-393.72 829.51,-393.13 828.37,-392.5 827.26,-391.83 826.18,-391.13 825.12,-390.4 824.1,-389.63 823.11,-388.84 822.17,-388.03 821.26,-387.19 820.41,-386.32 819.61,-385.44 818.87,-384.55 818.18,-383.64 817.56,-382.72 817.01,-381.78 816.54,-380.85 816.14,-379.91 815.82,-378.96 815.58,-378.02 815.43,-377.08 815.38,-376.15 815.41,-375.23 815.54,-374.32 815.77,-373.42 816.09,-372.54 816.52,-371.68 817.05,-370.84 817.67,-370.03 818.4,-369.24 819.23,-368.47 820.15,-367.74 821.17,-367.04 822.28,-366.37 823.48,-365.74 824.77,-365.15 826.14,-364.59 827.59,-364.08 829.11,-363.61 830.7,-363.18 832.35,-362.8 834.05,-362.46 835.81,-362.17 837.6,-361.93 839.43,-361.73 841.29,-361.58 843.17,-361.48 845.05,-361.43 846.95,-361.43 848.83,-361.48"/>
            <text text-anchor="middle" x="846" y="-376.33"
                  font-family="Times,serif" font-size="12.00">arcade
            </text>
        </g>
        <!-- node1 -->
        <g id="node10" class="node">
            <title>node1</title>
            <polygon fill="none" stroke="black"
                     points="853.12,-290.98 853.12,-305.89 827.86,-316.43 792.14,-316.43 766.88,-305.89 766.88,-290.98 792.14,-280.43 827.86,-280.43 853.12,-290.98"/>
            <text text-anchor="middle" x="810" y="-295.33"
                  font-family="Times,serif" font-size="12.00">arcade_lib
            </text>
        </g>
        <!-- node0&#45;&gt;node1 -->
        <g id="edge11" class="edge">
            <title>node0&#45;&gt;node1</title>
            <path fill="none" stroke="black" stroke-dasharray="1,5"
                  d="M838.37,-361.68C833.62,-351.28 827.43,-337.68 822.04,-325.85"/>
            <polygon fill="black" stroke="black"
                     points="825.08,-324.08 817.75,-316.44 818.71,-326.99 825.08,-324.08"/>
        </g>
        <!-- node5 -->
        <g id="node14" class="node">
            <title>node5</title>
            <polygon fill="none" stroke="black"
                     points="982.12,-290.98 982.12,-305.89 951,-316.43 907,-316.43 875.88,-305.89 875.88,-290.98 907,-280.43 951,-280.43 982.12,-290.98"/>
            <polygon fill="none" stroke="black"
                     points="986.11,-288.11 986.11,-308.76 951.66,-320.43 906.34,-320.43 871.89,-308.76 871.89,-288.11 906.34,-276.43 951.66,-276.43 986.11,-288.11"/>
            <text text-anchor="middle" x="929" y="-295.33"
                  font-family="Times,serif" font-size="12.00">arcade_menu
            </text>
        </g>
        <!-- node0&#45;&gt;node5 -->
        <g id="edge13" class="edge">
            <title>node0&#45;&gt;node5</title>
            <path fill="none" stroke="black"
                  d="M862,-363.2C872.54,-353.18 886.65,-339.75 899.2,-327.8"/>
            <polygon fill="black" stroke="black"
                     points="901.94,-330.02 906.77,-320.59 897.11,-324.95 901.94,-330.02"/>
        </g>
        <!-- node2 -->
        <g id="node11" class="node">
            <title>node2</title>
            <polygon fill="none" stroke="black"
                     points="1354.16,-197.28 1279,-209.72 1203.84,-197.28 1232.55,-177.15 1325.45,-177.15 1354.16,-197.28"/>
            <text text-anchor="middle" x="1279" y="-188.62"
                  font-family="Times,serif" font-size="12.00">arcade_interfaces
            </text>
        </g>
        <!-- node1&#45;&gt;node2 -->
        <g id="edge8" class="edge">
            <title>node1&#45;&gt;node2</title>
            <path fill="none" stroke="black"
                  d="M835.58,-283.65C844.11,-279.53 853.78,-275.34 863,-272.43 946,-246.3 969.94,-252.36 1056,-239.43 1117.6,-230.18 1134.33,-235.58 1195,-221.43 1209.61,-218.03 1225.26,-213.06 1239.05,-208.21"/>
            <polygon fill="black" stroke="black"
                     points="1240.49,-211.41 1248.71,-204.72 1238.12,-204.82 1240.49,-211.41"/>
        </g>
        <!-- node3 -->
        <g id="node12" class="node">
            <title>node3</title>
            <polygon fill="none" stroke="black"
                     points="690.36,-180.93 690.36,-202.51 648.56,-217.76 589.44,-217.76 547.64,-202.51 547.64,-180.93 589.44,-165.67 648.56,-165.67 690.36,-180.93"/>
            <text text-anchor="middle" x="619" y="-195.12"
                  font-family="Times,serif" font-size="12.00">spdlog
            </text>
            <text text-anchor="middle" x="619" y="-182.12"
                  font-family="Times,serif" font-size="12.00">(spdlog::spdlog)
            </text>
        </g>
        <!-- node1&#45;&gt;node3 -->
        <g id="edge10" class="edge">
            <title>node1&#45;&gt;node3</title>
            <path fill="none" stroke="black"
                  d="M784.64,-283.53C754.89,-267.22 704.9,-239.81 667.61,-219.37"/>
            <polygon fill="black" stroke="black"
                     points="668.87,-216.07 658.42,-214.33 665.51,-222.21 668.87,-216.07"/>
        </g>
        <!-- node4 -->
        <g id="node13" class="node">
            <title>node4</title>
            <polygon fill="none" stroke="black"
                     points="858.16,-108.56 783,-121 707.84,-108.56 736.55,-88.44 829.45,-88.44 858.16,-108.56"/>
            <text text-anchor="middle" x="783" y="-99.9"
                  font-family="Times,serif" font-size="12.00">Threads::Threads
            </text>
        </g>
        <!-- node3&#45;&gt;node4 -->
        <g id="edge9" class="edge">
            <title>node3&#45;&gt;node4</title>
            <path fill="none" stroke="black"
                  d="M659.12,-169.5C686.65,-154.95 722.8,-135.83 748.93,-122.02"/>
            <polygon fill="black" stroke="black"
                     points="750.87,-124.95 758.07,-117.18 747.59,-118.76 750.87,-124.95"/>
        </g>
        <!-- node5&#45;&gt;node2 -->
        <g id="edge12" class="edge">
            <title>node5&#45;&gt;node2</title>
            <path fill="none" stroke="black"
                  d="M968.44,-281.93C977.43,-278.61 987,-275.26 996,-272.43 1083.12,-245.1 1107.51,-247.56 1195,-221.43 1208.65,-217.36 1223.4,-212.48 1236.66,-207.91"/>
            <polygon fill="black" stroke="black"
                     points="1238.19,-211.09 1246.48,-204.5 1235.89,-204.48 1238.19,-211.09"/>
        </g>
        <!-- node6 -->
        <g id="node15" class="node">
            <title>node6</title>
            <polygon fill="none" stroke="black"
                     points="1179.08,-290.98 1179.08,-305.89 1129.24,-316.43 1058.76,-316.43 1008.92,-305.89 1008.92,-290.98 1058.76,-280.43 1129.24,-280.43 1179.08,-290.98"/>
            <polygon fill="none" stroke="black"
                     points="1183.07,-287.73 1183.07,-309.13 1129.66,-320.43 1058.34,-320.43 1004.93,-309.13 1004.93,-287.73 1058.34,-276.43 1129.66,-276.43 1183.07,-287.73"/>
            <text text-anchor="middle" x="1094" y="-295.33"
                  font-family="Times,serif" font-size="12.00">
                arcade_display_ncurses
            </text>
        </g>
        <!-- node6&#45;&gt;node2 -->
        <g id="edge15" class="edge">
            <title>node6&#45;&gt;node2</title>
            <path fill="none" stroke="black"
                  d="M1130.99,-276.49C1164.77,-257.37 1214.23,-229.38 1246.52,-211.1"/>
            <polygon fill="black" stroke="black"
                     points="1248.57,-213.96 1255.55,-205.99 1245.12,-207.87 1248.57,-213.96"/>
        </g>
        <!-- node7 -->
        <g id="node16" class="node">
            <title>node7</title>
            <polygon fill="none" stroke="black"
                     points="1185.61,-187.71 1167.47,-202.94 1094,-209.72 1020.53,-202.94 1002.39,-187.71 1053.23,-175.5 1134.77,-175.5 1185.61,-187.71"/>
            <text text-anchor="middle" x="1094" y="-188.62"
                  font-family="Times,serif" font-size="12.00">
                /usr/lib64/libncursesw.so
            </text>
        </g>
        <!-- node6&#45;&gt;node7 -->
        <g id="edge14" class="edge">
            <title>node6&#45;&gt;node7</title>
            <path fill="none" stroke="black" stroke-dasharray="1,5"
                  d="M1094,-276.24C1094,-260.01 1094,-237.49 1094,-219.93"/>
            <polygon fill="black" stroke="black"
                     points="1097.5,-219.73 1094,-209.73 1090.5,-219.73 1097.5,-219.73"/>
        </g>
        <!-- node8 -->
        <g id="node17" class="node">
            <title>node8</title>
            <polygon fill="none" stroke="black"
                     points="1103.06,-361.48 1109.05,-361.58 1114.98,-361.73 1120.83,-361.93 1126.57,-362.17 1132.17,-362.46 1137.62,-362.8 1142.9,-363.18 1147.97,-363.61 1152.83,-364.08 1157.46,-364.59 1161.84,-365.15 1165.96,-365.74 1169.8,-366.37 1173.35,-367.04 1176.61,-367.74 1179.56,-368.47 1182.2,-369.24 1184.52,-370.03 1186.52,-370.84 1188.2,-371.68 1189.56,-372.54 1190.6,-373.42 1191.33,-374.32 1191.75,-375.23 1191.86,-376.15 1191.67,-377.08 1191.2,-378.02 1190.45,-378.96 1189.43,-379.91 1188.15,-380.85 1186.62,-381.78 1184.87,-382.72 1182.89,-383.64 1180.71,-384.55 1178.33,-385.44 1175.77,-386.32 1173.04,-387.19 1170.16,-388.03 1167.14,-388.84 1163.99,-389.63 1160.72,-390.4 1157.34,-391.13 1153.87,-391.83 1150.32,-392.5 1146.69,-393.13 1143,-393.72 1139.25,-394.27 1135.45,-394.79 1131.61,-395.26 1127.74,-395.69 1123.83,-396.07 1119.9,-396.41 1115.94,-396.7 1111.98,-396.94 1107.99,-397.14 1104,-397.29 1100,-397.38 1096,-397.43 1092,-397.43 1088,-397.38 1084,-397.29 1080.01,-397.14 1076.02,-396.94 1072.06,-396.7 1068.1,-396.41 1064.17,-396.07 1060.26,-395.69 1056.39,-395.26 1052.55,-394.79 1048.75,-394.27 1045,-393.72 1041.31,-393.13 1037.68,-392.5 1034.13,-391.83 1030.66,-391.13 1027.28,-390.4 1024.01,-389.63 1020.86,-388.84 1017.84,-388.03 1014.96,-387.19 1012.23,-386.32 1009.67,-385.44 1007.29,-384.55 1005.11,-383.64 1003.13,-382.72 1001.38,-381.78 999.85,-380.85 998.57,-379.91 997.55,-378.96 996.8,-378.02 996.33,-377.08 996.14,-376.15 996.25,-375.23 996.67,-374.32 997.4,-373.42 998.44,-372.54 999.8,-371.68 1001.48,-370.84 1003.48,-370.03 1005.8,-369.24 1008.44,-368.47 1011.39,-367.74 1014.65,-367.04 1018.2,-366.37 1022.04,-365.74 1026.16,-365.15 1030.54,-364.59 1035.17,-364.08 1040.03,-363.61 1045.1,-363.18 1050.38,-362.8 1055.83,-362.46 1061.43,-362.17 1067.17,-361.93 1073.02,-361.73 1078.95,-361.58 1084.94,-361.48 1090.98,-361.43 1097.02,-361.43 1103.06,-361.48"/>
            <text text-anchor="middle" x="1094" y="-376.33"
                  font-family="Times,serif" font-size="12.00">
                arcade_display_ncurses_test
            </text>
        </g>
        <!-- node8&#45;&gt;node6 -->
        <g id="edge16" class="edge">
            <title>node8&#45;&gt;node6</title>
            <path fill="none" stroke="black" stroke-dasharray="1,5"
                  d="M1094,-361.29C1094,-352.31 1094,-341.02 1094,-330.56"/>
            <polygon fill="black" stroke="black"
                     points="1097.5,-330.48 1094,-320.48 1090.5,-330.48 1097.5,-330.48"/>
        </g>
        <!-- node9 -->
        <g id="node18" class="node">
            <title>node9</title>
            <polygon fill="none" stroke="black"
                     points="1529.75,-290.98 1529.75,-305.89 1485.96,-316.43 1424.04,-316.43 1380.25,-305.89 1380.25,-290.98 1424.04,-280.43 1485.96,-280.43 1529.75,-290.98"/>
            <polygon fill="none" stroke="black"
                     points="1533.75,-287.83 1533.75,-309.04 1486.44,-320.43 1423.56,-320.43 1376.25,-309.04 1376.25,-287.83 1423.56,-276.43 1486.44,-276.43 1533.75,-287.83"/>
            <text text-anchor="middle" x="1455" y="-295.33"
                  font-family="Times,serif" font-size="12.00">
                arcade_display_sdl2
            </text>
        </g>
        <!-- node9&#45;&gt;node2 -->
        <g id="edge19" class="edge">
            <title>node9&#45;&gt;node2</title>
            <path fill="none" stroke="black"
                  d="M1420.65,-277C1388.6,-257.93 1341.2,-229.72 1310.2,-211.28"/>
            <polygon fill="black" stroke="black"
                     points="1311.92,-208.23 1301.54,-206.13 1308.34,-214.25 1311.92,-208.23"/>
        </g>
        <!-- node10 -->
        <g id="node19" class="node">
            <title>node10</title>
            <polygon fill="none" stroke="black"
                     points="1483.94,-184.26 1483.94,-199.17 1452.34,-209.72 1407.66,-209.72 1376.06,-199.17 1376.06,-184.26 1407.66,-173.72 1452.34,-173.72 1483.94,-184.26"/>
            <polygon fill="none" stroke="black"
                     points="1487.94,-181.38 1487.94,-202.06 1452.99,-213.72 1407.01,-213.72 1372.06,-202.06 1372.06,-181.38 1407.01,-169.72 1452.99,-169.72 1487.94,-181.38"/>
            <text text-anchor="middle" x="1430" y="-188.62"
                  font-family="Times,serif" font-size="12.00">SDL2::SDL2
            </text>
        </g>
        <!-- node9&#45;&gt;node10 -->
        <g id="edge17" class="edge">
            <title>node9&#45;&gt;node10</title>
            <path fill="none" stroke="black" stroke-dasharray="1,5"
                  d="M1449.94,-276.24C1446.35,-261.2 1441.47,-240.75 1437.43,-223.86"/>
            <polygon fill="black" stroke="black"
                     points="1440.78,-222.79 1435.05,-213.88 1433.97,-224.42 1440.78,-222.79"/>
        </g>
        <!-- node11 -->
        <g id="node20" class="node">
            <title>node11</title>
            <polygon fill="none" stroke="black"
                     points="1644.09,-184.26 1644.09,-199.17 1603.62,-209.72 1546.38,-209.72 1505.91,-199.17 1505.91,-184.26 1546.38,-173.72 1603.62,-173.72 1644.09,-184.26"/>
            <text text-anchor="middle" x="1575" y="-188.62"
                  font-family="Times,serif" font-size="12.00">SDL2::SDL2main
            </text>
        </g>
        <!-- node9&#45;&gt;node11 -->
        <g id="edge18" class="edge">
            <title>node9&#45;&gt;node11</title>
            <path fill="none" stroke="black" stroke-dasharray="1,5"
                  d="M1479.28,-276.24C1499.11,-258.94 1527.13,-234.49 1547.73,-216.52"/>
            <polygon fill="black" stroke="black"
                     points="1550.27,-218.94 1555.5,-209.73 1545.67,-213.67 1550.27,-218.94"/>
        </g>
        <!-- node12 -->
        <g id="node21" class="node">
            <title>node12</title>
            <polygon fill="none" stroke="black"
                     points="1463.11,-361.48 1468.49,-361.58 1473.8,-361.73 1479.04,-361.93 1484.19,-362.17 1489.21,-362.46 1494.09,-362.8 1498.82,-363.18 1503.36,-363.61 1507.72,-364.08 1511.87,-364.59 1515.79,-365.15 1519.48,-365.74 1522.93,-366.37 1526.11,-367.04 1529.03,-367.74 1531.67,-368.47 1534.03,-369.24 1536.11,-370.03 1537.91,-370.84 1539.41,-371.68 1540.63,-372.54 1541.57,-373.42 1542.22,-374.32 1542.59,-375.23 1542.69,-376.15 1542.52,-377.08 1542.1,-378.02 1541.43,-378.96 1540.51,-379.91 1539.37,-380.85 1538,-381.78 1536.43,-382.72 1534.65,-383.64 1532.7,-384.55 1530.57,-385.44 1528.27,-386.32 1525.83,-387.19 1523.25,-388.03 1520.54,-388.84 1517.71,-389.63 1514.79,-390.4 1511.76,-391.13 1508.65,-391.83 1505.47,-392.5 1502.22,-393.13 1498.91,-393.72 1495.55,-394.27 1492.15,-394.79 1488.71,-395.26 1485.23,-395.69 1481.73,-396.07 1478.21,-396.41 1474.66,-396.7 1471.11,-396.94 1467.54,-397.14 1463.96,-397.29 1460.38,-397.38 1456.79,-397.43 1453.21,-397.43 1449.62,-397.38 1446.04,-397.29 1442.46,-397.14 1438.89,-396.94 1435.34,-396.7 1431.79,-396.41 1428.27,-396.07 1424.77,-395.69 1421.29,-395.26 1417.85,-394.79 1414.45,-394.27 1411.09,-393.72 1407.78,-393.13 1404.53,-392.5 1401.35,-391.83 1398.24,-391.13 1395.21,-390.4 1392.29,-389.63 1389.46,-388.84 1386.75,-388.03 1384.17,-387.19 1381.73,-386.32 1379.43,-385.44 1377.3,-384.55 1375.35,-383.64 1373.57,-382.72 1372,-381.78 1370.63,-380.85 1369.49,-379.91 1368.57,-378.96 1367.9,-378.02 1367.48,-377.08 1367.31,-376.15 1367.41,-375.23 1367.78,-374.32 1368.43,-373.42 1369.37,-372.54 1370.59,-371.68 1372.09,-370.84 1373.89,-370.03 1375.97,-369.24 1378.33,-368.47 1380.97,-367.74 1383.89,-367.04 1387.07,-366.37 1390.52,-365.74 1394.21,-365.15 1398.13,-364.59 1402.28,-364.08 1406.64,-363.61 1411.18,-363.18 1415.91,-362.8 1420.79,-362.46 1425.81,-362.17 1430.96,-361.93 1436.2,-361.73 1441.51,-361.58 1446.89,-361.48 1452.29,-361.43 1457.71,-361.43 1463.11,-361.48"/>
            <text text-anchor="middle" x="1455" y="-376.33"
                  font-family="Times,serif" font-size="12.00">
                arcade_display_sdl2_test
            </text>
        </g>
        <!-- node12&#45;&gt;node9 -->
        <g id="edge20" class="edge">
            <title>node12&#45;&gt;node9</title>
            <path fill="none" stroke="black" stroke-dasharray="1,5"
                  d="M1455,-361.29C1455,-352.31 1455,-341.02 1455,-330.56"/>
            <polygon fill="black" stroke="black"
                     points="1458.5,-330.48 1455,-320.48 1451.5,-330.48 1458.5,-330.48"/>
        </g>
        <!-- node13 -->
        <g id="node22" class="node">
            <title>node13</title>
            <polygon fill="none" stroke="black"
                     points="1774.1,-290.98 1774.1,-305.89 1730.11,-316.43 1667.89,-316.43 1623.9,-305.89 1623.9,-290.98 1667.89,-280.43 1730.11,-280.43 1774.1,-290.98"/>
            <polygon fill="none" stroke="black"
                     points="1778.09,-287.82 1778.09,-309.05 1730.58,-320.43 1667.42,-320.43 1619.91,-309.05 1619.91,-287.82 1667.42,-276.43 1730.58,-276.43 1778.09,-287.82"/>
            <text text-anchor="middle" x="1699" y="-295.33"
                  font-family="Times,serif" font-size="12.00">
                arcade_display_sfml
            </text>
        </g>
        <!-- node13&#45;&gt;node2 -->
        <g id="edge21" class="edge">
            <title>node13&#45;&gt;node2</title>
            <path fill="none" stroke="black"
                  d="M1632.8,-284.64C1564.66,-270.96 1455.65,-247.67 1363,-221.43 1349.04,-217.48 1333.99,-212.55 1320.53,-207.9"/>
            <polygon fill="black" stroke="black"
                     points="1321.65,-204.58 1311.06,-204.58 1319.33,-211.19 1321.65,-204.58"/>
        </g>
        <!-- node14 -->
        <g id="node23" class="node">
            <title>node14</title>
            <polygon fill="none" stroke="black"
                     points="1810.12,-184.26 1810.12,-199.17 1779,-209.72 1735,-209.72 1703.88,-199.17 1703.88,-184.26 1735,-173.72 1779,-173.72 1810.12,-184.26"/>
            <polygon fill="none" stroke="black"
                     points="1814.11,-181.39 1814.11,-202.04 1779.66,-213.72 1734.34,-213.72 1699.89,-202.04 1699.89,-181.39 1734.34,-169.72 1779.66,-169.72 1814.11,-181.39"/>
            <text text-anchor="middle" x="1757" y="-188.62"
                  font-family="Times,serif" font-size="12.00">sfml&#45;graphics
            </text>
        </g>
        <!-- node13&#45;&gt;node14 -->
        <g id="edge24" class="edge">
            <title>node13&#45;&gt;node14</title>
            <path fill="none" stroke="black" stroke-dasharray="1,5"
                  d="M1710.74,-276.24C1719.23,-260.91 1730.82,-239.98 1740.28,-222.91"/>
            <polygon fill="black" stroke="black"
                     points="1743.5,-224.32 1745.28,-213.88 1737.37,-220.93 1743.5,-224.32"/>
        </g>
        <!-- node15 -->
        <g id="node24" class="node">
            <title>node15</title>
            <polygon fill="none" stroke="black"
                     points="1808.95,-95.54 1808.95,-110.46 1778.52,-121 1735.48,-121 1705.05,-110.46 1705.05,-95.54 1735.48,-85 1778.52,-85 1808.95,-95.54"/>
            <polygon fill="none" stroke="black"
                     points="1812.94,-92.7 1812.94,-113.3 1779.19,-125 1734.81,-125 1701.06,-113.3 1701.06,-92.7 1734.81,-81 1779.19,-81 1812.94,-92.7"/>
            <text text-anchor="middle" x="1757" y="-99.9"
                  font-family="Times,serif" font-size="12.00">sfml&#45;window
            </text>
        </g>
        <!-- node13&#45;&gt;node15 -->
        <g id="edge26" class="edge">
            <title>node13&#45;&gt;node15</title>
            <path fill="none" stroke="black" stroke-dasharray="1,5"
                  d="M1748.84,-280.72C1775.97,-268.78 1807.15,-249.74 1823,-221.43 1835.91,-198.39 1833.89,-186.07 1823,-162 1817.08,-148.92 1806.59,-137.61 1795.69,-128.55"/>
            <polygon fill="black" stroke="black"
                     points="1797.77,-125.74 1787.74,-122.35 1793.47,-131.26 1797.77,-125.74"/>
        </g>
        <!-- node16 -->
        <g id="node25" class="node">
            <title>node16</title>
            <polygon fill="none" stroke="black"
                     points="1731.95,-14.54 1731.95,-29.46 1703.86,-40 1664.14,-40 1636.05,-29.46 1636.05,-14.54 1664.14,-4 1703.86,-4 1731.95,-14.54"/>
            <polygon fill="none" stroke="black"
                     points="1735.95,-11.77 1735.95,-32.23 1704.59,-44 1663.41,-44 1632.05,-32.23 1632.05,-11.77 1663.41,0 1704.59,0 1735.95,-11.77"/>
            <text text-anchor="middle" x="1684" y="-18.9"
                  font-family="Times,serif" font-size="12.00">sfml&#45;system
            </text>
        </g>
        <!-- node13&#45;&gt;node16 -->
        <g id="edge25" class="edge">
            <title>node13&#45;&gt;node16</title>
            <path fill="none" stroke="black" stroke-dasharray="1,5"
                  d="M1696.36,-276.18C1694.57,-260.96 1692.3,-239.96 1691,-221.43 1686.86,-162.5 1685.13,-93.54 1684.43,-54.39"/>
            <polygon fill="black" stroke="black"
                     points="1687.93,-54.11 1684.26,-44.17 1680.93,-54.23 1687.93,-54.11"/>
        </g>
        <!-- node14&#45;&gt;node15 -->
        <g id="edge23" class="edge">
            <title>node14&#45;&gt;node15</title>
            <path fill="none" stroke="black" stroke-dasharray="5,2"
                  d="M1757,-169.28C1757,-159.1 1757,-146.72 1757,-135.49"/>
            <polygon fill="black" stroke="black"
                     points="1760.5,-135.19 1757,-125.19 1753.5,-135.19 1760.5,-135.19"/>
        </g>
        <!-- node15&#45;&gt;node16 -->
        <g id="edge22" class="edge">
            <title>node15&#45;&gt;node16</title>
            <path fill="none" stroke="black" stroke-dasharray="5,2"
                  d="M1737.44,-80.83C1729.17,-71.89 1719.42,-61.33 1710.52,-51.7"/>
            <polygon fill="black" stroke="black"
                     points="1712.97,-49.2 1703.62,-44.23 1707.83,-53.95 1712.97,-49.2"/>
        </g>
        <!-- node17 -->
        <g id="node26" class="node">
            <title>node17</title>
            <polygon fill="none" stroke="black"
                     points="1707.11,-361.48 1712.49,-361.58 1717.8,-361.73 1723.04,-361.93 1728.19,-362.17 1733.21,-362.46 1738.09,-362.8 1742.82,-363.18 1747.36,-363.61 1751.72,-364.08 1755.87,-364.59 1759.79,-365.15 1763.48,-365.74 1766.93,-366.37 1770.11,-367.04 1773.03,-367.74 1775.67,-368.47 1778.03,-369.24 1780.11,-370.03 1781.91,-370.84 1783.41,-371.68 1784.63,-372.54 1785.57,-373.42 1786.22,-374.32 1786.59,-375.23 1786.69,-376.15 1786.52,-377.08 1786.1,-378.02 1785.43,-378.96 1784.51,-379.91 1783.37,-380.85 1782,-381.78 1780.43,-382.72 1778.65,-383.64 1776.7,-384.55 1774.57,-385.44 1772.27,-386.32 1769.83,-387.19 1767.25,-388.03 1764.54,-388.84 1761.71,-389.63 1758.79,-390.4 1755.76,-391.13 1752.65,-391.83 1749.47,-392.5 1746.22,-393.13 1742.91,-393.72 1739.55,-394.27 1736.15,-394.79 1732.71,-395.26 1729.23,-395.69 1725.73,-396.07 1722.21,-396.41 1718.66,-396.7 1715.11,-396.94 1711.54,-397.14 1707.96,-397.29 1704.38,-397.38 1700.79,-397.43 1697.21,-397.43 1693.62,-397.38 1690.04,-397.29 1686.46,-397.14 1682.89,-396.94 1679.34,-396.7 1675.79,-396.41 1672.27,-396.07 1668.77,-395.69 1665.29,-395.26 1661.85,-394.79 1658.45,-394.27 1655.09,-393.72 1651.78,-393.13 1648.53,-392.5 1645.35,-391.83 1642.24,-391.13 1639.21,-390.4 1636.29,-389.63 1633.46,-388.84 1630.75,-388.03 1628.17,-387.19 1625.73,-386.32 1623.43,-385.44 1621.3,-384.55 1619.35,-383.64 1617.57,-382.72 1616,-381.78 1614.63,-380.85 1613.49,-379.91 1612.57,-378.96 1611.9,-378.02 1611.48,-377.08 1611.31,-376.15 1611.41,-375.23 1611.78,-374.32 1612.43,-373.42 1613.37,-372.54 1614.59,-371.68 1616.09,-370.84 1617.89,-370.03 1619.97,-369.24 1622.33,-368.47 1624.97,-367.74 1627.89,-367.04 1631.07,-366.37 1634.52,-365.74 1638.21,-365.15 1642.13,-364.59 1646.28,-364.08 1650.64,-363.61 1655.18,-363.18 1659.91,-362.8 1664.79,-362.46 1669.81,-362.17 1674.96,-361.93 1680.2,-361.73 1685.51,-361.58 1690.89,-361.48 1696.29,-361.43 1701.71,-361.43 1707.11,-361.48"/>
            <text text-anchor="middle" x="1699" y="-376.33"
                  font-family="Times,serif" font-size="12.00">
                arcade_display_sfml_test
            </text>
        </g>
        <!-- node17&#45;&gt;node13 -->
        <g id="edge27" class="edge">
            <title>node17&#45;&gt;node13</title>
            <path fill="none" stroke="black" stroke-dasharray="1,5"
                  d="M1699,-361.29C1699,-352.31 1699,-341.02 1699,-330.56"/>
            <polygon fill="black" stroke="black"
                     points="1702.5,-330.48 1699,-320.48 1695.5,-330.48 1702.5,-330.48"/>
        </g>
        <!-- node18 -->
        <g id="node27" class="node">
            <title>node18</title>
            <polygon fill="none" stroke="black"
                     points="1354.75,-290.98 1354.75,-305.89 1310.96,-316.43 1249.04,-316.43 1205.25,-305.89 1205.25,-290.98 1249.04,-280.43 1310.96,-280.43 1354.75,-290.98"/>
            <polygon fill="none" stroke="black"
                     points="1358.75,-287.83 1358.75,-309.04 1311.44,-320.43 1248.56,-320.43 1201.25,-309.04 1201.25,-287.83 1248.56,-276.43 1311.44,-276.43 1358.75,-287.83"/>
            <text text-anchor="middle" x="1280" y="-295.33"
                  font-family="Times,serif" font-size="12.00">arcade_game_snake
            </text>
        </g>
        <!-- node18&#45;&gt;node2 -->
        <g id="edge28" class="edge">
            <title>node18&#45;&gt;node2</title>
            <path fill="none" stroke="black"
                  d="M1279.8,-276.24C1279.64,-260.01 1279.43,-237.49 1279.26,-219.93"/>
            <polygon fill="black" stroke="black"
                     points="1282.76,-219.7 1279.16,-209.73 1275.76,-219.76 1282.76,-219.7"/>
        </g>
        <!-- node19 -->
        <g id="node28" class="node">
            <title>node19</title>
            <polygon fill="none" stroke="black"
                     points="984.19,-200.97 846,-221.65 707.81,-200.97 760.59,-167.5 931.41,-167.5 984.19,-200.97"/>
            <text text-anchor="middle" x="846" y="-195.12"
                  font-family="Times,serif" font-size="12.00">spdlog_header_only
            </text>
            <text text-anchor="middle" x="846" y="-182.12"
                  font-family="Times,serif" font-size="12.00">
                (spdlog::spdlog_header_only)
            </text>
        </g>
        <!-- node19&#45;&gt;node4 -->
        <g id="edge29" class="edge">
            <title>node19&#45;&gt;node4</title>
            <path fill="none" stroke="black" stroke-dasharray="5,2"
                  d="M829.12,-167.48C820.2,-155.21 809.28,-140.17 800.3,-127.81"/>
            <polygon fill="black" stroke="black"
                     points="802.87,-125.4 794.16,-119.37 797.21,-129.51 802.87,-125.4"/>
        </g>
    </g>
</svg>
